<?xml version="1.0" encoding="utf-8"?>
<!-- Generator: Adobe Illustrator 21.1.0, SVG Export Plug-In . SVG Version: 6.00 Build 0)  -->
<svg version="1.1" id="Layer_1" xmlns="http://www.w3.org/2000/svg" xmlns:xlink="http://www.w3.org/1999/xlink" x="0px" y="0px"
	 viewBox="0 0 745.9 354" style="enable-background:new 0 0 745.9 354;" xml:space="preserve">
<style type="text/css">
	.st0{fill:#FFFFFF;}
</style>
<path class="st0" d="M162,355H0V1h162V355z M38.1,15.7H14.8V52h23.3V15.7z M73.3,15.7H50.1V52h23.3V15.7z M108.5,15.7H85.3V52h23.3
	V15.7z M143.8,15.7h-23.3V52h23.3V15.7z M38.1,68.7H14.8V105h23.3V68.7z M73.3,68.7H50.1V105h23.3V68.7z M108.5,68.7H85.3V105h23.3
	V68.7z M143.8,68.7h-23.3V105h23.3V68.7z M38.1,121.7H14.8V158h23.3V121.7z M73.3,121.7H50.1V158h23.3V121.7z M108.5,121.7H85.3V158
	h23.3V121.7z M143.8,121.7h-23.3V158h23.3V121.7z M38.1,174.7H14.8V211h23.3V174.7z M73.3,174.7H50.1V211h23.3V174.7z M108.5,174.7
	H85.3V211h23.3V174.7z M143.8,174.7h-23.3V211h23.3V174.7z M38.1,227.7H14.8V264h23.3V227.7z M73.3,227.7H50.1V264h23.3V227.7z
	 M108.5,227.7H85.3V264h23.3V227.7z M143.8,227.7h-23.3V264h23.3V227.7z M38.1,280.7H14.8V317h23.3V280.7z M73.3,280.7H50.1V317
	h23.3V280.7z M108.5,280.7H85.3V317h23.3V280.7z M143.8,280.7h-23.3V317h23.3V280.7z"/>
<path class="st0" d="M336.6,355H173.4V143.7h163.2V355z M218.9,159.8h-23.3v36.3h23.3V159.8z M314.4,159.8h-23.3v36.3h23.3V159.8z
	 M218.9,207.8h-23.3v36.3h23.3V207.8z M266.7,207.8h-23.3v36.3h23.3V207.8z M314.4,207.8h-23.3v36.3h23.3V207.8z M314.4,255.8h-23.3
	v36.3h23.3V255.8z M314.4,303.8h-23.3v36.3h23.3V303.8z M266.7,303.8h-23.3v36.3h23.3V303.8z M266.7,159.8h-23.3v36.3h23.3V159.8z
	 M218.9,255.8h-23.3v36.3h23.3V255.8z M266.7,255.8h-23.3v36.3h23.3V255.8z M218.9,303.8h-23.3v36.3h23.3V303.8z"/>
<path class="st0" d="M516.3,355H353.2V143.7h163.2V355z M398.7,159.8h-23.3v36.3h23.3V159.8z M494.1,159.8h-23.3v36.3h23.3V159.8z
	 M398.7,207.8h-23.3v36.3h23.3V207.8z M446.4,207.8h-23.3v36.3h23.3V207.8z M494.1,207.8h-23.3v36.3h23.3V207.8z M494.1,255.8h-23.3
	v36.3h23.3V255.8z M494.1,303.8h-23.3v36.3h23.3V303.8z M446.4,303.8h-23.3v36.3h23.3V303.8z M446.4,159.8h-23.3v36.3h23.3V159.8z
	 M398.7,255.8h-23.3v36.3h23.3V255.8z M446.4,255.8h-23.3v36.3h23.3V255.8z M398.7,303.8h-23.3v36.3h23.3V303.8z"/>
<path class="st0" d="M745.9,355h-213V78.5h213V355z M580.6,93.7h-23.3V130h23.3V93.7z M615.8,93.7h-23.3V130h23.3V93.7z M651,93.7
	h-23.3V130H651V93.7z M686.2,93.7H663V130h23.3V93.7z M580.6,141.7h-23.3V178h23.3V141.7z M615.8,141.7h-23.3V178h23.3V141.7z
	 M651,141.7h-23.3V178H651V141.7z M686.2,141.7H663V178h23.3V141.7z M580.6,189.7h-23.3V226h23.3V189.7z M615.8,189.7h-23.3V226
	h23.3V189.7z M651,189.7h-23.3V226H651V189.7z M686.2,189.7H663V226h23.3V189.7z M580.6,237.7h-23.3V274h23.3V237.7z M615.8,237.7
	h-23.3V274h23.3V237.7z M651,237.7h-23.3V274H651V237.7z M686.2,237.7H663V274h23.3V237.7z M580.6,285.7h-23.3V322h23.3V285.7z
	 M615.8,285.7h-23.3V322h23.3V285.7z M651,285.7h-23.3V322H651V285.7z M686.2,285.7H663V322h23.3V285.7z M721.5,93.7h-23.3V130h23.3
	V93.7z M721.5,141.7h-23.3V178h23.3V141.7z M721.5,189.7h-23.3V226h23.3V189.7z M721.5,237.7h-23.3V274h23.3V237.7z M721.5,285.7
	h-23.3V322h23.3V285.7z"/>
</svg>
